{
	"asset": {
		"version": "2.0",
		"generator": "Created using the official Cinema 4D glTF Exporter 1.000x284978"
	},
	"scenes": [
		{
			"nodes": [
				0
			]
		}
	],
	"nodes": [
		{
			"name": "station",
			"translation": [
				0.0,
				130.0,
				0.0
			],
			"rotation": [
				0.0,
				0.0,
				0.0,
				-1.0
			],
			"scale": [
				1.0,
				1.0,
				1.0
			],
			"mesh": 0
		}
	],
	"meshes": [
		{
			"name": "station",
			"primitives": [
				{
					"attributes": {
						"POSITION": 1,
						"NORMAL": 2,
						"TEXCOORD_0": 3
					},
					"indices": 0,
					"material": 0
				}
			]
		}
	],
	"accessors": [
		{
			"bufferView": 0,
			"type": "SCALAR",
			"max": [
				1877
			],
			"byteOffset": 0,
			"componentType": 5123,
			"count": 7776,
			"min": [
				0
			]
		},
		{
			"bufferView": 1,
			"type": "VEC3",
			"max": [
				97.158203125,
				281.20703125,
				39.04620361328125
			],
			"byteOffset": 0,
			"componentType": 5126,
			"count": 1878,
			"min": [
				-97.158203125,
				0.05528992787003517,
				-39.04620361328125
			]
		},
		{
			"bufferView": 1,
			"type": "VEC3",
			"max": [
				0.9999688267707825,
				0.9999688267707825,
				1.0
			],
			"byteOffset": 12,
			"componentType": 5126,
			"count": 1878,
			"min": [
				-0.9999688267707825,
				-0.9999688267707825,
				-1.0
			]
		},
		{
			"bufferView": 1,
			"type": "VEC2",
			"max": [
				1.0,
				1.0
			],
			"byteOffset": 24,
			"componentType": 5126,
			"count": 1878,
			"min": [
				0.0,
				0.0
			]
		}
	],
	"buffers": [
		{
			"uri": "data:application/octet-stream;base64,",
			"byteLength": 75648
		}
	],
	"bufferViews": [
		{
			"buffer": 0,
			"byteOffset": 0,
			"byteLength": 15552,
			"target": 34963
		},
		{
			"buffer": 0,
			"byteOffset": 15552,
			"byteLength": 60096,
			"target": 34962,
			"byteStride": 32
		}
	],
	"materials": [
		{
			"pbrMetallicRoughness": {
				"baseColorFactor": [
					0.20299999999999999,
					0.58,
					0.44805000000000008,
					1.0
				],
				"metallicFactor": 0.03,
				"roughnessFactor": 0.88
			},
			"emissiveFactor": [
				0.0,
				0.0,
				0.0
			],
			"alphaMode": "OPAQUE",
			"doubleSided": false,
			"name": "materials"
		}
	]
}